<svg width="56" height="56" viewBox="0 0 56 56" fill="none" xmlns="http://www.w3.org/2000/svg">
<path d="M47.9313 7.51687C47.9313 4.43714 45.4302 1.93604 42.3506 1.93604H13.6494C10.5698 1.93604 8.06866 4.43714 8.06866 7.51687V48.4833C8.06866 51.5631 10.5698 54.0642 13.6494 54.0642H42.3506C45.4302 54.0642 47.9313 51.5631 47.9313 48.4833V7.51687ZM43.8429 7.51687V48.4833C43.8429 49.307 43.1744 49.9752 42.3506 49.9752H13.6494C12.8256 49.9752 12.1571 49.307 12.1571 48.4833V7.51687C12.1571 6.69325 12.8256 6.02497 13.6494 6.02497H42.3506C43.1744 6.02497 43.8429 6.69325 43.8429 7.51687Z" fill="black"/>
<path d="M16.7561 13.6964H39.2427C40.3708 13.6964 41.2872 12.7806 41.2872 11.6522C41.2872 10.5237 40.3708 9.60791 39.2427 9.60791H16.7561C15.628 9.60791 14.7117 10.5237 14.7117 11.6522C14.7117 12.7806 15.628 13.6964 16.7561 13.6964Z" fill="black"/>
<path d="M16.7561 21.8712H39.2427C40.3708 21.8712 41.2872 20.9554 41.2872 19.827C41.2872 18.6985 40.3708 17.7827 39.2427 17.7827H16.7561C15.628 17.7827 14.7117 18.6985 14.7117 19.827C14.7117 20.9554 15.628 21.8712 16.7561 21.8712Z" fill="black"/>
<path d="M16.7561 30.0462H39.2427C40.3708 30.0462 41.2872 29.1304 41.2872 28.002C41.2872 26.8736 40.3708 25.9578 39.2427 25.9578H16.7561C15.628 25.9578 14.7117 26.8736 14.7117 28.002C14.7117 29.1304 15.628 30.0462 16.7561 30.0462Z" fill="black"/>
<path d="M16.7561 38.2213H39.2427C40.3708 38.2213 41.2872 37.3055 41.2872 36.1771C41.2872 35.0486 40.3708 34.1328 39.2427 34.1328H16.7561C15.628 34.1328 14.7117 35.0486 14.7117 36.1771C14.7117 37.3055 15.628 38.2213 16.7561 38.2213Z" fill="black"/>
<path d="M16.7561 46.3961H39.2427C40.3708 46.3961 41.2872 45.4803 41.2872 44.3519C41.2872 43.2234 40.3708 42.3076 39.2427 42.3076H16.7561C15.628 42.3076 14.7117 43.2234 14.7117 44.3519C14.7117 45.4803 15.628 46.3961 16.7561 46.3961Z" fill="black"/>
</svg>
