<svg width="56" height="56" viewBox="0 0 56 56" fill="none" xmlns="http://www.w3.org/2000/svg">
<path d="M47.9314 7.51687C47.9314 4.43714 45.4302 1.93604 42.3506 1.93604H13.6494C10.5698 1.93604 8.06866 4.43714 8.06866 7.51687V48.4833C8.06866 51.5631 10.5698 54.0642 13.6494 54.0642H42.3506C45.4302 54.0642 47.9314 51.5631 47.9314 48.4833V7.51687ZM43.8429 7.51687V48.4833C43.8429 49.307 43.1744 49.9752 42.3506 49.9752H13.6494C12.8256 49.9752 12.1571 49.307 12.1571 48.4833V7.51687C12.1571 6.69325 12.8256 6.02497 13.6494 6.02497H42.3506C43.1744 6.02497 43.8429 6.69325 43.8429 7.51687Z" fill="black"/>
<path d="M16.7561 13.6964H39.2428C40.3708 13.6964 41.2872 12.7806 41.2872 11.6522C41.2872 10.5237 40.3708 9.60791 39.2428 9.60791H16.7561C15.628 9.60791 14.7117 10.5237 14.7117 11.6522C14.7117 12.7806 15.628 13.6964 16.7561 13.6964Z" fill="black"/>
</svg>
