<svg width="56" height="56" viewBox="0 0 56 56" fill="none" xmlns="http://www.w3.org/2000/svg">
<path d="M13.9115 23.7924V17.7174H6.28446C5.45546 17.7174 4.78446 17.0454 4.78446 16.2174V14.3694C4.78446 13.5414 5.45546 12.8694 6.28446 12.8694H49.4385C50.2665 12.8694 50.9385 13.5414 50.9385 14.3694V16.2174C50.9385 17.0454 50.2665 17.7174 49.4385 17.7174H37.9385V26.1104L48.2955 28.8854C49.4715 29.2004 50.4375 30.0564 51.0415 31.3274C51.7645 32.8454 51.9615 35.0214 51.3595 37.2704C50.7565 39.5194 49.4975 41.3044 48.1125 42.2584C46.9535 43.0564 45.6895 43.3154 44.5135 43.0004C44.5135 43.0004 37.8835 41.2234 32.8405 39.8724C28.9535 38.8314 26.6475 34.8354 27.6885 30.9494C27.6925 30.9354 27.6955 30.9224 27.6995 30.9094C28.5895 27.5854 31.6415 25.4164 34.9385 25.5104V17.7174H16.4115V23.1784C19.0815 22.8534 21.6525 24.5334 22.3685 27.2064C22.3715 27.2164 22.3735 27.2254 22.3765 27.2354C23.1605 30.1624 21.4235 33.1704 18.4965 33.9554L9.70746 36.3104C8.82146 36.5474 7.86946 36.3524 6.99746 35.7514C5.95446 35.0334 5.00646 33.6894 4.55246 31.9954C4.09946 30.3024 4.24746 28.6634 4.79146 27.5204C5.24646 26.5634 5.97346 25.9194 6.85946 25.6814L13.9115 23.7924ZM45.2905 40.1024C45.8035 40.2404 46.3165 39.9234 46.7975 39.4744C47.5275 38.7944 48.1275 37.7404 48.4615 36.4944C48.7955 35.2484 48.8025 34.0344 48.5105 33.0804C48.3185 32.4514 48.0325 31.9204 47.5195 31.7834C47.0065 31.6454 46.4925 31.9624 46.0115 32.4104C45.2825 33.0914 44.6825 34.1454 44.3485 35.3914C44.0145 36.6374 44.0065 37.8514 44.2985 38.8054C44.4905 39.4344 44.7775 39.9654 45.2905 40.1024ZM35.7675 28.6354C33.5065 28.0734 31.2025 29.4254 30.5965 31.6864C30.5935 31.6994 30.5895 31.7124 30.5865 31.7254C29.9735 34.0114 31.3305 36.3624 33.6175 36.9744L41.2655 39.0244C40.9995 37.7234 41.0295 36.1874 41.4505 34.6154C41.8715 33.0434 42.6135 31.6984 43.4945 30.7044L36.3525 28.7914C36.1435 28.7794 35.9455 28.7244 35.7675 28.6354ZM7.44446 27.8634C7.05746 27.9674 6.84246 28.3674 6.69746 28.8404C6.47746 29.5594 6.48346 30.4724 6.73446 31.4114C6.98646 32.3494 7.43746 33.1434 7.98746 33.6554C8.34946 33.9934 8.73646 34.2314 9.12246 34.1284C9.50846 34.0244 9.72446 33.6244 9.86946 33.1514C10.0895 32.4334 10.0835 31.5194 9.83146 30.5814C9.58046 29.6434 9.12846 28.8484 8.57946 28.3364C8.21746 27.9994 7.83046 27.7604 7.44446 27.8634ZM12.1535 33.3164L17.9125 31.7734C19.6335 31.3114 20.6555 29.5424 20.1945 27.8204C20.1915 27.8104 20.1895 27.8004 20.1865 27.7904C19.7255 26.0694 17.9555 25.0474 16.2335 25.5084L10.4745 27.0514C11.1385 27.7994 11.6965 28.8134 12.0135 29.9964C12.3305 31.1804 12.3535 32.3364 12.1535 33.3164Z" fill="black"/>
</svg>
