<svg width="56" height="56" viewBox="0 0 56 56" fill="none" xmlns="http://www.w3.org/2000/svg">
<path d="M5.358 29.9693V26.4573C5.358 25.6903 5.796 24.9913 6.486 24.6573L27.128 14.6573C27.679 14.3903 28.321 14.3903 28.872 14.6573L49.514 24.6573C50.204 24.9913 50.642 25.6903 50.642 26.4573V29.9693V30.0093C50.642 30.1463 50.627 30.2843 50.598 30.4213L50.594 30.4373C50.552 30.6273 50.482 30.8073 50.39 30.9723C50.302 31.1313 50.194 31.2743 50.072 31.3983L50.054 31.4163L50.041 31.4303C49.916 31.5523 49.773 31.6593 49.614 31.7473C49.562 31.7763 49.509 31.8033 49.454 31.8283L28.839 41.3583C28.307 41.6043 27.693 41.6043 27.161 41.3583L6.546 31.8283C6.491 31.8033 6.438 31.7773 6.386 31.7473C6.227 31.6593 6.084 31.5523 5.959 31.4303L5.941 31.4123L5.928 31.3983C5.806 31.2733 5.698 31.1313 5.61 30.9723C5.518 30.8073 5.448 30.6273 5.406 30.4373L5.402 30.4213C5.373 30.2843 5.358 30.1463 5.358 30.0093V29.9813V29.9693ZM12.124 30.0003L28 37.3393L43.876 30.0003L28 22.6603L12.124 30.0003Z" fill="black"/>
</svg>
