<svg width="56" height="56" viewBox="0 0 56 56" fill="none" xmlns="http://www.w3.org/2000/svg">
<path d="M49.3887 24.0546C48.5715 23.4862 47.8964 22.7045 47.399 21.7452C46.6529 20.3241 46.5108 18.7608 46.8306 17.3396C47.1148 16.0605 46.2266 14.7815 44.9475 14.6393C43.9527 14.4972 42.9934 14.1419 42.1052 13.5379C40.7906 12.6497 39.9023 11.3351 39.5115 9.91394C39.1562 8.67041 37.7706 7.95982 36.5626 8.4217C35.6388 8.777 34.6085 8.91911 33.5781 8.81253C31.9793 8.63488 30.5936 7.92429 29.5633 6.85841C29.1369 6.43206 28.5685 6.18335 28 6.18335C27.4315 6.18335 26.863 6.43206 26.4367 6.85841C25.4063 7.92429 24.0207 8.63488 22.4219 8.81253C21.356 8.91911 20.3612 8.777 19.4374 8.4217C18.2294 7.95982 16.8437 8.63488 16.4885 9.91394C16.0976 11.3351 15.2094 12.6497 13.8948 13.5379C13.0066 14.1419 12.0473 14.4972 11.0525 14.6393C9.73787 14.817 8.88516 16.0605 9.1694 17.3396C9.48916 18.7963 9.31151 20.3241 8.60093 21.7452C8.10351 22.7045 7.42846 23.4506 6.61128 24.0546C5.5454 24.8363 5.36775 26.364 6.22046 27.3233C7.17975 28.4603 7.78375 29.917 7.81928 31.5158C7.81928 32.5817 7.6061 33.5765 7.14422 34.4648C6.57575 35.6372 7.14422 37.0584 8.35222 37.5558C9.73787 38.0888 10.9459 39.0836 11.7275 40.5048C12.2249 41.4285 12.5092 42.4233 12.5447 43.4182C12.5802 44.7328 13.7882 45.7276 15.0673 45.5499C16.524 45.3723 18.0517 45.692 19.4019 46.5447C20.2901 47.1132 21.0007 47.8593 21.4981 48.712C22.1732 49.849 23.6654 50.1687 24.7313 49.3871C25.6906 48.712 26.792 48.2857 28 48.2146C29.208 48.3212 30.3094 48.712 31.2687 49.3871C32.3346 50.1332 33.8623 49.8135 34.5019 48.712C34.9993 47.8593 35.7099 47.1132 36.5981 46.5447C37.9482 45.692 39.476 45.3723 40.9327 45.5499C42.2473 45.7276 43.4197 44.7328 43.4553 43.4182C43.4908 42.4233 43.775 41.4285 44.2724 40.5048C45.0541 39.1191 46.2621 38.0888 47.6477 37.5558C48.8557 37.0939 49.4242 35.6372 48.8557 34.4648C48.4294 33.5765 48.1807 32.5817 48.1807 31.5158C48.2162 29.917 48.7847 28.4603 49.7795 27.3233C50.6322 26.364 50.4546 24.8363 49.3887 24.0546ZM27.9645 42.3168C20.0769 42.3168 13.6461 35.8859 13.6461 27.9984C13.6461 20.1109 20.0769 13.6801 27.9645 13.6801C35.852 13.6801 42.2828 20.1109 42.2828 27.9984C42.2828 35.8859 35.852 42.3168 27.9645 42.3168Z" fill="black"/>
<path fill-rule="evenodd" clip-rule="evenodd" d="M36.9505 24.42L25.5363 35.8342L19.1201 29.418L21.9485 26.5896L25.5363 30.1773L34.1221 21.5916L36.9505 24.42Z" fill="black"/>
</svg>
