<svg width="56" height="56" viewBox="0 0 56 56" fill="none" xmlns="http://www.w3.org/2000/svg">
<path d="M39.1657 17.0381C42.4889 15.9216 43.1329 16.8316 40.5272 19.1118C37.8864 21.4218 32.9741 24.2096 29.6316 25.2946C26.3363 26.3656 25.8796 25.3506 28.5396 23.0703C31.1611 20.8198 35.8879 18.1388 39.1657 17.0381ZM28.9876 29.2496C33.7791 27.9231 40.6619 24.0136 44.2529 20.5836C46.0695 18.8493 46.6645 17.5946 46.1797 16.9646C42.7689 11.3575 36.0261 9.04751 30.4489 11.4398C30.5311 11.1388 30.5924 10.8273 30.5924 10.5C30.5924 8.56626 29.0244 7 27.0923 7C25.1586 7 23.5923 8.56626 23.5923 10.5C23.5923 12.2203 24.8366 13.6448 26.4746 13.9388L10.1785 29.5471C9.85125 29.8604 9.66399 30.2926 9.65874 30.7441C9.65349 31.1974 9.83025 31.6331 10.1522 31.9516L20.5403 42.3415C19.5691 42.4832 18.638 42.6582 17.8278 42.8892C16.1215 43.3827 15.1555 43.9917 14.907 44.6235C14.8615 44.7267 14.8423 44.8405 14.8423 44.9507V46.0445C14.8423 46.1565 14.8615 46.2615 14.907 46.3735C15.1625 47.0297 16.2003 47.6597 18.0045 48.1585C22.0733 49.2802 28.5974 49.2802 32.6714 48.1585C34.4756 47.6597 35.5204 47.0297 35.7759 46.3735C35.8214 46.2615 35.8424 46.1565 35.8424 46.0445V44.9507C35.8424 44.8405 35.8214 44.7267 35.7759 44.6235C35.5274 43.9917 34.5614 43.3827 32.8621 42.8892C30.7026 42.2697 27.8203 41.981 24.9678 42.0107L13.7485 30.7879L23.3403 21.5986C23.1408 24.0626 23.6221 26.6439 24.8768 29.0309C25.1551 29.7869 26.5411 29.9269 28.9876 29.2496Z" fill="black"/>
</svg>
