<svg width="56" height="56" viewBox="0 0 56 56" fill="none" xmlns="http://www.w3.org/2000/svg">
<path d="M23.0761 9.16675C25.7766 8.61262 30.2151 8.61262 32.9198 9.16675C35.5873 9.71263 35.5048 10.583 32.8029 11.111C30.1395 11.6308 25.8687 11.6308 23.2026 11.111C20.4979 10.583 20.4127 9.71263 23.0761 9.16675ZM34.7266 23.0942C36.3807 22.6308 37.3294 22.0451 37.5646 21.4373C37.6072 21.3315 37.6251 21.2352 37.6251 21.1321V8.74049C37.6251 8.63737 37.6072 8.53424 37.5646 8.43662C37.3363 7.85086 36.4522 7.28436 34.8888 6.82786C31.1048 5.72372 24.8897 5.72372 21.1057 6.82786C19.5492 7.28436 18.6637 7.85086 18.4354 8.43662C18.3928 8.53424 18.3749 8.63737 18.3749 8.74049V21.1321C18.3749 21.2352 18.3928 21.3315 18.4354 21.4373C18.6706 22.0451 19.6262 22.6308 21.2803 23.0942C22.7928 23.5164 24.6752 23.757 26.625 23.8381V43.157C22.6003 43.3138 19.3663 44.1319 18.5674 45.1879C18.4396 45.3515 18.3749 45.5275 18.3749 45.7035V47.4223C18.3749 48.8454 22.6856 50.0004 28 50.0004C33.3144 50.0004 37.6251 48.8454 37.6251 47.4223V45.7035C37.6251 44.4069 34.0377 43.333 29.375 43.1556V23.8381C31.3275 23.7584 33.2127 23.5177 34.7266 23.0942Z" fill="black"/>
</svg>
