<svg width="56" height="56" viewBox="0 0 56 56" fill="none" xmlns="http://www.w3.org/2000/svg">
<path fill-rule="evenodd" clip-rule="evenodd" d="M9.454 24.9726L9.455 24.9716L9.444 25.0046L9.433 25.0376L9.43299 25.0376C9.42699 25.0576 9.421 25.0776 9.415 25.0986L9.412 25.1066C9.401 25.1466 9.39 25.1876 9.38 25.2276L9.377 25.2386C9.372 25.2576 9.367 25.2776 9.363 25.2976L9.355 25.3316L9.347 25.3696L9.335 25.4296L9.333 25.4426C9.331 25.4526 9.32925 25.4626 9.3275 25.4726C9.32575 25.4826 9.324 25.4926 9.322 25.5026L9.316 25.5426L9.311 25.5776C9.3095 25.5876 9.30825 25.5976 9.307 25.6076C9.30575 25.6176 9.3045 25.6276 9.303 25.6376L9.302 25.6416L9.299 25.6716L9.294 25.7126L9.29352 25.7176C9.29169 25.7368 9.28992 25.7553 9.289 25.7746L9.288 25.7876L9.28752 25.7926C9.28569 25.8118 9.28392 25.8303 9.283 25.8496L9.281 25.8886L9.279 25.9266C9.2785 25.9367 9.27825 25.9471 9.27799 25.9576C9.27775 25.9679 9.2775 25.9782 9.277 25.9886V25.9936V26.0216L9.276 26.0656V29.9346C9.276 31.8296 10.815 33.3686 12.711 33.3686H22.911L11.21 40.2476C10.313 40.7656 9.638 41.8926 9.455 42.8366C9.339 43.1796 9.276 43.5476 9.276 43.9296V47.7986C9.276 49.6946 10.815 51.2336 12.711 51.2336H43.289C45.185 51.2336 46.724 49.6946 46.724 47.7986V43.9296C46.724 42.0346 45.185 40.4956 43.289 40.4956H32.6L44.949 33.1676C45.716 32.7246 46.248 31.9716 46.501 31.1516C46.645 30.7736 46.724 30.3626 46.724 29.9346V26.0656C46.724 24.1696 45.185 22.6306 43.289 22.6306H32.6L44.949 15.3026C46.089 14.6446 46.711 13.3016 46.666 12.0696V8.2006C46.666 6.3056 45.127 4.7666 43.231 4.7666H12.711C10.815 4.7666 9.276 6.3056 9.276 8.2006V12.0696C9.276 13.9656 10.815 15.5036 12.711 15.5036H22.911L11.21 22.3836C10.313 22.9006 9.637 24.0286 9.454 24.9726ZM17.117 40.4956L28.917 33.3686H38.392L26.593 40.4956H17.117ZM17.117 22.6306L28.917 15.5036H38.392L26.593 22.6306H17.117ZM43.724 47.7986V43.9296C43.724 43.6906 43.529 43.4956 43.289 43.4956H12.711C12.471 43.4956 12.276 43.6906 12.276 43.9296V47.7986C12.276 48.0386 12.471 48.2336 12.711 48.2336H43.289C43.529 48.2336 43.724 48.0386 43.724 47.7986ZM12.711 25.6306H43.231C43.471 25.6306 43.666 25.8256 43.666 26.0656V29.9346C43.666 30.1736 43.471 30.3686 43.231 30.3686H12.711C12.471 30.3686 12.276 30.1736 12.276 29.9346V26.0656C12.276 25.8256 12.471 25.6306 12.711 25.6306ZM43.666 12.0696V8.2006C43.666 7.9606 43.471 7.7666 43.231 7.7666H12.711C12.471 7.7666 12.276 7.9606 12.276 8.2006V12.0696C12.276 12.3096 12.471 12.5036 12.711 12.5036H43.231C43.471 12.5036 43.666 12.3096 43.666 12.0696Z" fill="black"/>
<path d="M16.1173 11.0946C16.6696 11.0946 17.1173 10.6666 17.1173 10.1386C17.1173 9.61063 16.6696 9.18262 16.1173 9.18262C15.565 9.18262 15.1173 9.61063 15.1173 10.1386C15.1173 10.6666 15.565 11.0946 16.1173 11.0946Z" fill="black"/>
<path d="M40.1183 11.0946C40.6706 11.0946 41.1183 10.6666 41.1183 10.1386C41.1183 9.61063 40.6706 9.18262 40.1183 9.18262C39.566 9.18262 39.1183 9.61063 39.1183 10.1386C39.1183 10.6666 39.566 11.0946 40.1183 11.0946Z" fill="black"/>
<path d="M27.9708 11.0946C28.5231 11.0946 28.9708 10.6666 28.9708 10.1386C28.9708 9.61063 28.5231 9.18262 27.9708 9.18262C27.4185 9.18262 26.9708 9.61063 26.9708 10.1386C26.9708 10.6666 27.4185 11.0946 27.9708 11.0946Z" fill="black"/>
<path d="M22.0441 11.0946C22.5964 11.0946 23.0441 10.6666 23.0441 10.1386C23.0441 9.61063 22.5964 9.18262 22.0441 9.18262C21.4918 9.18262 21.0441 9.61063 21.0441 10.1386C21.0441 10.6666 21.4918 11.0946 22.0441 11.0946Z" fill="black"/>
<path d="M34.1915 11.0946C34.7438 11.0946 35.1915 10.6666 35.1915 10.1386C35.1915 9.61063 34.7438 9.18262 34.1915 9.18262C33.6392 9.18262 33.1915 9.61063 33.1915 10.1386C33.1915 10.6666 33.6392 11.0946 34.1915 11.0946Z" fill="black"/>
<path d="M16.1173 28.9501C16.6696 28.9501 17.1173 28.5221 17.1173 27.9941C17.1173 27.4661 16.6696 27.0381 16.1173 27.0381C15.565 27.0381 15.1173 27.4661 15.1173 27.9941C15.1173 28.5221 15.565 28.9501 16.1173 28.9501Z" fill="black"/>
<path d="M40.1183 28.9501C40.6706 28.9501 41.1183 28.5221 41.1183 27.9941C41.1183 27.4661 40.6706 27.0381 40.1183 27.0381C39.566 27.0381 39.1183 27.4661 39.1183 27.9941C39.1183 28.5221 39.566 28.9501 40.1183 28.9501Z" fill="black"/>
<path d="M27.9708 28.9501C28.5231 28.9501 28.9708 28.5221 28.9708 27.9941C28.9708 27.4661 28.5231 27.0381 27.9708 27.0381C27.4185 27.0381 26.9708 27.4661 26.9708 27.9941C26.9708 28.5221 27.4185 28.9501 27.9708 28.9501Z" fill="black"/>
<path d="M22.0441 28.9501C22.5964 28.9501 23.0441 28.5221 23.0441 27.9941C23.0441 27.4661 22.5964 27.0381 22.0441 27.0381C21.4918 27.0381 21.0441 27.4661 21.0441 27.9941C21.0441 28.5221 21.4918 28.9501 22.0441 28.9501Z" fill="black"/>
<path d="M34.1915 28.9501C34.7438 28.9501 35.1915 28.5221 35.1915 27.9941C35.1915 27.4661 34.7438 27.0381 34.1915 27.0381C33.6392 27.0381 33.1915 27.4661 33.1915 27.9941C33.1915 28.5221 33.6392 28.9501 34.1915 28.9501Z" fill="black"/>
<path d="M16.1173 46.8192C16.6696 46.8192 17.1173 46.3912 17.1173 45.8632C17.1173 45.3352 16.6696 44.9072 16.1173 44.9072C15.565 44.9072 15.1173 45.3352 15.1173 45.8632C15.1173 46.3912 15.565 46.8192 16.1173 46.8192Z" fill="black"/>
<path d="M40.1183 46.8192C40.6706 46.8192 41.1183 46.3912 41.1183 45.8632C41.1183 45.3352 40.6706 44.9072 40.1183 44.9072C39.566 44.9072 39.1183 45.3352 39.1183 45.8632C39.1183 46.3912 39.566 46.8192 40.1183 46.8192Z" fill="black"/>
<path d="M27.9708 46.8192C28.5231 46.8192 28.9708 46.3912 28.9708 45.8632C28.9708 45.3352 28.5231 44.9072 27.9708 44.9072C27.4185 44.9072 26.9708 45.3352 26.9708 45.8632C26.9708 46.3912 27.4185 46.8192 27.9708 46.8192Z" fill="black"/>
<path d="M22.0441 46.8192C22.5964 46.8192 23.0441 46.3912 23.0441 45.8632C23.0441 45.3352 22.5964 44.9072 22.0441 44.9072C21.4918 44.9072 21.0441 45.3352 21.0441 45.8632C21.0441 46.3912 21.4918 46.8192 22.0441 46.8192Z" fill="black"/>
<path d="M34.1915 46.8192C34.7438 46.8192 35.1915 46.3912 35.1915 45.8632C35.1915 45.3352 34.7438 44.9072 34.1915 44.9072C33.6392 44.9072 33.1915 45.3352 33.1915 45.8632C33.1915 46.3912 33.6392 46.8192 34.1915 46.8192Z" fill="black"/>
</svg>
