<svg width="56" height="56" viewBox="0 0 56 56" fill="none" xmlns="http://www.w3.org/2000/svg">
<path fill-rule="evenodd" clip-rule="evenodd" d="M9.454 24.9726L9.455 24.9716L9.38 25.2276L9.322 25.5026L9.277 25.9886L9.276 29.9346C9.276 31.8296 10.815 33.3686 12.711 33.3686H22.911L11.21 40.2476C10.313 40.7656 9.638 41.8926 9.455 42.8366C9.339 43.1796 9.276 43.5476 9.276 43.9296V47.7986C9.276 49.6946 10.815 51.2336 12.711 51.2336H43.289C45.185 51.2336 46.724 49.6946 46.724 47.7986V43.9296C46.724 42.0346 45.185 40.4956 43.289 40.4956H32.6L44.949 33.1676C45.716 32.7246 46.248 31.9716 46.501 31.1516C46.645 30.7736 46.724 30.3626 46.724 29.9346V26.0656C46.724 24.1696 45.185 22.6306 43.289 22.6306H32.6L44.949 15.3026C46.089 14.6446 46.711 13.3016 46.666 12.0696V8.2006C46.666 6.3056 45.127 4.7666 43.231 4.7666H12.711C10.815 4.7666 9.276 6.3056 9.276 8.2006V12.0696C9.276 13.9656 10.815 15.5036 12.711 15.5036H22.911L11.21 22.3836C10.313 22.9006 9.637 24.0286 9.454 24.9726ZM17.117 40.4956L28.917 33.3686H38.392L26.593 40.4956H17.117ZM17.117 22.6306L28.917 15.5036H38.392L26.593 22.6306H17.117ZM23.044 45.8645C23.044 45.3365 22.596 44.9085 22.044 44.9085C21.492 44.9085 21.044 45.3365 21.044 45.8645C21.044 46.3925 21.492 46.8205 22.044 46.8205C22.596 46.8205 23.044 46.3925 23.044 45.8645ZM17.117 45.8645C17.117 45.3365 16.669 44.9085 16.117 44.9085C15.565 44.9085 15.117 45.3365 15.117 45.8645C15.117 46.3925 15.565 46.8205 16.117 46.8205C16.669 46.8205 17.117 46.3925 17.117 45.8645ZM41.117 45.8645C41.117 45.3365 40.669 44.9085 40.117 44.9085C39.565 44.9085 39.117 45.3365 39.117 45.8645C39.117 46.3925 39.565 46.8205 40.117 46.8205C40.669 46.8205 41.117 46.3925 41.117 45.8645ZM28.971 45.8645C28.971 45.3365 28.523 44.9085 27.971 44.9085C27.419 44.9085 26.971 45.3365 26.971 45.8645C26.971 46.3925 27.419 46.8205 27.971 46.8205C28.523 46.8205 28.971 46.3925 28.971 45.8645ZM35.19 45.8645C35.19 45.3365 34.742 44.9085 34.19 44.9085C33.639 44.9085 33.19 45.3365 33.19 45.8645C33.19 46.3925 33.639 46.8205 34.19 46.8205C34.742 46.8205 35.19 46.3925 35.19 45.8645ZM17.117 27.9995C17.117 27.4715 16.669 27.0435 16.117 27.0435C15.565 27.0435 15.117 27.4715 15.117 27.9995C15.117 28.5275 15.565 28.9555 16.117 28.9555C16.669 28.9555 17.117 28.5275 17.117 27.9995ZM41.117 27.9995C41.117 27.4715 40.669 27.0435 40.117 27.0435C39.565 27.0435 39.117 27.4715 39.117 27.9995C39.117 28.5275 39.565 28.9555 40.117 28.9555C40.669 28.9555 41.117 28.5275 41.117 27.9995ZM28.971 27.9995C28.971 27.4715 28.523 27.0435 27.971 27.0435C27.419 27.0435 26.971 27.4715 26.971 27.9995C26.971 28.5275 27.419 28.9555 27.971 28.9555C28.523 28.9555 28.971 28.5275 28.971 27.9995ZM23.044 27.9995C23.044 27.4715 22.596 27.0435 22.044 27.0435C21.492 27.0435 21.044 27.4715 21.044 27.9995C21.044 28.5275 21.492 28.9555 22.044 28.9555C22.596 28.9555 23.044 28.5275 23.044 27.9995ZM35.19 27.9995C35.19 27.4715 34.742 27.0435 34.19 27.0435C33.639 27.0435 33.19 27.4715 33.19 27.9995C33.19 28.5275 33.639 28.9555 34.19 28.9555C34.742 28.9555 35.19 28.5275 35.19 27.9995ZM17.117 10.1355C17.117 9.60747 16.669 9.17847 16.117 9.17847C15.565 9.17847 15.117 9.60747 15.117 10.1355C15.117 10.6625 15.565 11.0915 16.117 11.0915C16.669 11.0915 17.117 10.6625 17.117 10.1355ZM41.117 10.1355C41.117 9.60747 40.669 9.17847 40.117 9.17847C39.565 9.17847 39.117 9.60747 39.117 10.1355C39.117 10.6625 39.565 11.0915 40.117 11.0915C40.669 11.0915 41.117 10.6625 41.117 10.1355ZM28.971 10.1355C28.971 9.60747 28.523 9.17847 27.971 9.17847C27.419 9.17847 26.971 9.60747 26.971 10.1355C26.971 10.6625 27.419 11.0915 27.971 11.0915C28.523 11.0915 28.971 10.6625 28.971 10.1355ZM23.044 10.1355C23.044 9.60747 22.596 9.17847 22.044 9.17847C21.492 9.17847 21.044 9.60747 21.044 10.1355C21.044 10.6625 21.492 11.0915 22.044 11.0915C22.596 11.0915 23.044 10.6625 23.044 10.1355ZM35.19 10.1355C35.19 9.60747 34.742 9.17847 34.19 9.17847C33.639 9.17847 33.19 9.60747 33.19 10.1355C33.19 10.6625 33.639 11.0915 34.19 11.0915C34.742 11.0915 35.19 10.6625 35.19 10.1355Z" fill="black"/>
</svg>
