<svg width="56" height="56" viewBox="0 0 56 56" fill="none" xmlns="http://www.w3.org/2000/svg">
<path d="M7.5 18C7.5 16.895 8.389 16 9.502 16H46.498C47.604 16 48.5 16.888 48.5 18C48.5 19.105 47.611 20 46.498 20H9.502C8.396 20 7.5 19.112 7.5 18ZM7.5 28C7.5 26.895 8.389 26 9.502 26H36.5C37.606 26 38.502 26.888 38.502 28C38.502 29.105 37.612 30 36.5 30H9.502C8.396 30 7.5 29.112 7.5 28ZM7.5 38C7.5 36.895 8.389 36 9.502 36H26.5C27.606 36 28.502 36.888 28.502 38C28.502 39.105 27.612 40 26.5 40H9.502C8.396 40 7.5 39.112 7.5 38Z" fill="black"/>
</svg>
