<svg width="56" height="56" viewBox="0 0 56 56" fill="none" xmlns="http://www.w3.org/2000/svg">
<path d="M26.7412 40.9412V34.9722C26.7412 34.1442 27.4142 33.4722 28.2412 33.4722C29.0692 33.4722 29.7412 34.1442 29.7412 34.9722V40.9412L41.7802 45.5722C42.5532 45.8692 42.9392 46.7372 42.6412 47.5102C42.3442 48.2832 41.4762 48.6692 40.7032 48.3722L29.7412 44.1562V46.9722C29.7412 47.8002 29.0692 48.4722 28.2412 48.4722C27.4142 48.4722 26.7412 47.8002 26.7412 46.9722V44.1562L15.7802 48.3722C15.0072 48.6692 14.1392 48.2832 13.8412 47.5102C13.5442 46.7372 13.9302 45.8692 14.7032 45.5722L26.7412 40.9412V40.9412Z" fill="black"/>
<path d="M39.2586 6.46665C38.8616 3.61565 36.4236 1.49365 33.5446 1.49365C30.1976 1.49365 25.8106 1.49365 22.4376 1.49365C19.5046 1.49365 17.0386 3.69365 16.7066 6.60765C16.2766 10.3757 15.6886 15.5257 15.2266 19.5707C15.0406 21.2037 15.5596 22.8387 16.6536 24.0657C17.7486 25.2927 19.3146 25.9937 20.9586 25.9937C25.2916 25.9937 30.9816 25.9937 35.3486 25.9937C37.0176 25.9937 38.6046 25.2707 39.6996 24.0127C40.7956 22.7537 41.2926 21.0827 41.0626 19.4297C40.4956 15.3557 39.7786 10.2027 39.2586 6.46665Z" fill="black"/>
<path d="M16.5102 28.0669C21.3302 29.2289 34.4042 29.2289 39.2242 28.0669C42.4192 27.2959 44.0482 32.5539 41.9232 32.5539C35.9372 32.5539 20.5462 32.5539 14.5592 32.5539C12.4352 32.5539 13.3142 27.2959 16.5102 28.0669V28.0669Z" fill="black"/>
<path d="M14.7592 53.0101C15.8732 53.0101 16.7762 52.107 16.7762 50.9931C16.7762 49.8791 15.8732 48.9761 14.7592 48.9761C13.6452 48.9761 12.7422 49.8791 12.7422 50.9931C12.7422 52.107 13.6452 53.0101 14.7592 53.0101Z" fill="black"/>
<path d="M28.2405 53.0101C29.3545 53.0101 30.2575 52.107 30.2575 50.9931C30.2575 49.8791 29.3545 48.9761 28.2405 48.9761C27.1266 48.9761 26.2235 49.8791 26.2235 50.9931C26.2235 52.107 27.1266 53.0101 28.2405 53.0101Z" fill="black"/>
<path d="M41.2408 53.0101C42.3547 53.0101 43.2578 52.107 43.2578 50.9931C43.2578 49.8791 42.3547 48.9761 41.2408 48.9761C40.1268 48.9761 39.2238 49.8791 39.2238 50.9931C39.2238 52.107 40.1268 53.0101 41.2408 53.0101Z" fill="black"/>
</svg>
