<svg width="56" height="56" viewBox="0 0 56 56" fill="none" xmlns="http://www.w3.org/2000/svg">
<path d="M9.505 19.5C9.636 16.442 12.16 14 15.25 14H40.75C43.84 14 46.364 16.442 46.495 19.5H48C49.656 19.5 51 20.844 51 22.5V36.5C51 38.156 49.656 39.5 48 39.5H47.5V40.5C47.5 41.328 46.828 42 46 42C45.172 42 44.5 41.328 44.5 40.5V39.5H11.5V40.5C11.5 41.328 10.828 42 10 42C9.172 42 8.5 41.328 8.5 40.5V39.5H8C6.344 39.5 5 38.156 5 36.5V22.5C5 20.844 6.344 19.5 8 19.5H9.505ZM11 31.53V23.97C11 23.159 10.344 22.502 9.533 22.5C9.513 22.5 9.493 22.5 9.473 22.5C9.083 22.499 8.708 22.654 8.432 22.93C8.155 23.205 8 23.58 8 23.97C8 26.659 8 32.341 8 35.03C8 35.842 8.658 36.5 9.47 36.5C15.744 36.5 40.254 36.5 46.53 36.5C46.92 36.5 47.294 36.345 47.569 36.069C47.845 35.794 48 35.42 48 35.03C48 32.341 48 26.659 48 23.97C48 23.158 47.342 22.5 46.53 22.5C46.51 22.5 46.49 22.5 46.47 22.5C45.658 22.5 45 23.158 45 23.97C45 26.522 45 31.5 45 31.5C44.989 31.935 44.791 32.344 44.455 32.622L44.412 32.657C44.154 32.869 43.834 32.99 43.501 32.999L43.5 33H12.47C12.08 33 11.706 32.845 11.431 32.569C11.155 32.294 11 31.92 11 31.53ZM43.5 19.902V19.75C43.5 18.232 42.268 17 40.75 17H15.25C13.732 17 12.5 18.232 12.5 19.75V19.902C13.137 20.271 13.627 20.868 13.856 21.58L13.868 21.617L13.881 21.661L13.891 21.697L13.902 21.736L13.911 21.771L13.919 21.807L13.928 21.843L13.936 21.879L13.943 21.916L13.95 21.953L13.957 21.99L13.963 22.027L13.968 22.064L13.974 22.101L13.978 22.139L13.983 22.176L13.987 22.214L13.99 22.252L13.993 22.29L13.995 22.329L13.997 22.367L13.999 22.405V22.444L14 22.487V22.5V30H42V22.5V22.474L42.001 22.435L42.002 22.396L42.003 22.358L42.005 22.319L42.008 22.281L42.011 22.243L42.014 22.205L42.018 22.167L42.023 22.129L42.028 22.091L42.033 22.054L42.039 22.016L42.045 21.979L42.054 21.931L42.061 21.894L42.069 21.857L42.077 21.821L42.086 21.784L42.095 21.747L42.107 21.705L42.116 21.673L42.122 21.65L42.133 21.615L42.144 21.58C42.373 20.868 42.863 20.271 43.5 19.902Z" fill="black"/>
</svg>
