<svg width="56" height="56" viewBox="0 0 56 56" fill="none" xmlns="http://www.w3.org/2000/svg">
<path fill-rule="evenodd" d="M47.4378 8.02395C47.4378 5.02048 44.9986 2.5813 41.9952 2.5813H14.0047C11.0013 2.5813 8.56213 5.02048 8.56213 8.02395V47.9761C8.56213 50.9796 11.0013 53.4187 14.0047 53.4187H41.9952C44.9986 53.4187 47.4378 50.9796 47.4378 47.9761V8.02395ZM43.4506 8.02395V47.9761C43.4506 48.7793 42.7987 49.431 41.9952 49.431H14.0047C13.2013 49.431 12.5494 48.7793 12.5494 47.9761V8.02395C12.5494 7.22072 13.2013 6.56899 14.0047 6.56899H41.9952C42.7987 6.56899 43.4506 7.22072 43.4506 8.02395Z" fill="black"/>
</svg>
