<svg width="56" height="56" viewBox="0 0 56 56" fill="none" xmlns="http://www.w3.org/2000/svg">
<path fill-rule="evenodd" clip-rule="evenodd" d="M9.012 18.741C7.001 20.292 6 22.133 6 24V32C6 33.867 7.001 35.708 9.012 37.259C12.577 40.008 19.73 42 28 42C36.27 42 43.423 40.008 46.988 37.259C48.999 35.708 50 33.867 50 32V24C50 22.133 48.999 20.292 46.988 18.741C43.423 15.992 36.27 14 28 14C19.73 14 12.577 15.992 9.012 18.741ZM43.181 29.032C39.759 27.165 34.226 26 28 26C21.774 26 16.241 27.165 12.819 29.032C11.858 29.556 11.081 30.124 10.557 30.753C10.225 31.151 10 31.557 10 32C10 32.443 10.225 32.849 10.557 33.247C11.081 33.876 11.858 34.444 12.819 34.968C16.241 36.835 21.774 38 28 38C34.226 38 39.759 36.835 43.181 34.968C44.142 34.444 44.919 33.876 45.443 33.247C45.775 32.849 46 32.443 46 32C46 31.557 45.775 31.151 45.443 30.753C44.919 30.124 44.142 29.556 43.181 29.032Z" fill="black"/>
</svg>
