<svg width="56" height="56" viewBox="0 0 56 56" fill="none" xmlns="http://www.w3.org/2000/svg">
<path d="M5.77298 28.2119V25.7991C5.77298 24.994 6.33995 24.2999 7.12896 24.138L36.1825 18.2056C36.6121 18.1183 37.0596 18.2005 37.43 18.4361L49.4405 26.0635C49.9304 26.3745 50.227 26.9144 50.227 27.4941V30.1501V30.1611V30.1789C50.227 30.1967 50.2262 30.2154 50.2253 30.2332L50.2245 30.2552L50.2236 30.2586C50.2092 30.5077 50.1406 30.7416 50.0295 30.9501L50.0219 30.9637L50.0134 30.9798L49.9999 31.0044L49.9914 31.0188C49.8406 31.2739 49.6236 31.4866 49.3643 31.6324L49.3431 31.6442C49.1905 31.7281 49.0236 31.7891 48.8465 31.8222L19.8201 37.7936C19.3802 37.8843 18.9217 37.7961 18.5463 37.5495L6.53572 29.6374C6.31791 29.4941 6.14079 29.306 6.01282 29.0907L6.00095 29.0704C5.87553 28.8551 5.79671 28.6094 5.77722 28.3475L5.77637 28.3305V28.3229C5.77467 28.3043 5.77383 28.2848 5.77383 28.2661V28.2653C5.77298 28.2475 5.77298 28.2297 5.77298 28.2119ZM11.8172 29.0577L19.8243 34.3316L44.1827 29.3204L36.1757 24.0465L11.8172 29.0577Z" fill="black"/>
</svg>
