<svg width="56" height="56" viewBox="0 0 56 56" fill="none" xmlns="http://www.w3.org/2000/svg">
<path fill-rule="evenodd" clip-rule="evenodd" d="M4.5 21.9658V34H51.3813V21.9658H4.5ZM14.5 25C13.3954 25 12.5 25.8954 12.5 27C12.5 28.1046 13.3954 29 14.5 29H19.5C20.6046 29 21.5 28.1046 21.5 27C21.5 25.8954 20.6046 25 19.5 25H14.5Z" fill="black"/>
<path d="M4.5 35H51.5V36C51.5 36.5523 51.0523 37 50.5 37H5.5C4.94772 37 4.5 36.5523 4.5 36V35Z" fill="black"/>
<path d="M4.5 21H51.5V20C51.5 19.4477 51.0523 19 50.5 19H5.5C4.94772 19 4.5 19.4477 4.5 20V21Z" fill="black"/>
</svg>
