<svg width="56" height="56" viewBox="0 0 56 56" fill="none" xmlns="http://www.w3.org/2000/svg">
<path d="M22.6316 27.9816C22.6316 27.5366 22.4676 27.0676 22.0226 26.6696L16.0926 21.0206C15.8116 20.7396 15.4366 20.6226 14.9906 20.6226C14.1006 20.6226 13.4436 21.2786 13.4436 22.1456C13.4436 22.6146 13.6086 23.0596 13.9126 23.2706L15.2726 24.3956L17.8736 26.5526L14.2876 26.4116H7.14762C6.23362 26.4116 5.55362 27.0676 5.55362 27.9816C5.55362 28.9196 6.23362 29.5756 7.14762 29.5756H14.2876L17.8976 29.4346L15.2726 31.6376L13.9126 32.7166C13.6086 32.9276 13.4436 33.3956 13.4436 33.8416C13.4436 34.7086 14.1006 35.3876 14.9906 35.3876C15.4366 35.3876 15.8116 35.2476 16.0926 34.9666L22.0226 29.3646C22.4436 28.9896 22.6316 28.4736 22.6316 27.9816Z" fill="black"/>
<path fill-rule="evenodd" clip-rule="evenodd" d="M46.1514 4.85889C48.5215 4.85889 50.4464 7.03127 50.4464 9.70752V46.2936C50.4464 48.9686 48.5215 51.1409 46.1514 51.1409H32.5328C30.1627 51.1409 28.2378 48.9686 28.2378 46.2936V9.70752C28.2378 7.03127 30.1627 4.85889 32.5328 4.85889H46.1514ZM41.0974 46.6138C41.0974 45.6443 40.3116 44.8585 39.3421 44.8585C38.3726 44.8585 37.5868 45.6443 37.5868 46.6138C37.5868 47.5832 38.3726 48.369 39.3421 48.369C40.0105 48.369 40.5922 47.9953 40.8881 47.4455C41.0221 47.198 41.0974 46.9148 41.0974 46.6138ZM48.1707 10.9819V43.4388H30.5135V10.9819H48.1707Z" fill="black"/>
</svg>
