<svg width="56" height="56" viewBox="0 0 56 56" fill="none" xmlns="http://www.w3.org/2000/svg">
<path d="M2.99991 23.498V32.498C2.99991 33.326 3.67191 33.998 4.49991 33.998C5.32791 33.998 5.99991 33.326 5.99991 32.498V23.498C5.99991 22.67 5.32791 21.998 4.49991 21.998C3.67191 21.998 2.99991 22.67 2.99991 23.498Z" fill="black"/>
<path d="M7.00021 21.5013V34.5012C7.00021 35.3289 7.67221 36.0006 8.50021 36.0006C9.32821 36.0006 10.0002 35.3289 10.0002 34.5012V21.5013C10.0002 20.6736 9.32821 20.002 8.50021 20.002C7.67221 20.002 7.00021 20.6736 7.00021 21.5013Z" fill="black"/>
<path d="M11.0001 19V37C11.0001 37.828 11.6721 38.5 12.5001 38.5C13.3281 38.5 14.0001 37.828 14.0001 37V19C14.0001 18.172 13.3281 17.5 12.5001 17.5C11.6721 17.5 11.0001 18.172 11.0001 19Z" fill="black"/>
<path d="M50.0001 23.498V32.498C50.0001 33.326 50.6721 33.998 51.5001 33.998C52.3281 33.998 53.0001 33.326 53.0001 32.498V23.498C53.0001 22.67 52.3281 21.998 51.5001 21.998C50.6721 21.998 50.0001 22.67 50.0001 23.498Z" fill="black"/>
<path d="M46.0002 21.5013V34.5012C46.0002 35.3289 46.6722 36.0006 47.5002 36.0006C48.3282 36.0006 49.0002 35.3289 49.0002 34.5012V21.5013C49.0002 20.6736 48.3282 20.002 47.5002 20.002C46.6722 20.002 46.0002 20.6736 46.0002 21.5013Z" fill="black"/>
<path d="M41.9999 19V37C41.9999 37.828 42.6719 38.5 43.4999 38.5C44.3279 38.5 44.9999 37.828 44.9999 37V19C44.9999 18.172 44.3279 17.5 43.4999 17.5C42.6719 17.5 41.9999 18.172 41.9999 19Z" fill="black"/>
<path d="M16.5 30.002H39.5C40.328 30.002 41 29.33 41 28.502C41 27.674 40.328 27.002 39.5 27.002H16.5C15.672 27.002 15 27.674 15 28.502C15 29.33 15.672 30.002 16.5 30.002Z" fill="black"/>
</svg>
