<svg width="56" height="56" viewBox="0 0 56 56" fill="none" xmlns="http://www.w3.org/2000/svg">
<path d="M48.5 18C48.5 16.895 47.611 16 46.498 16H9.502C8.396 16 7.5 16.888 7.5 18C7.5 19.105 8.389 20 9.502 20H46.498C47.604 20 48.5 19.112 48.5 18ZM48.5 28C48.5 26.895 47.611 26 46.498 26H19.5C18.394 26 17.498 26.888 17.498 28C17.498 29.105 18.388 30 19.5 30H46.498C47.604 30 48.5 29.112 48.5 28ZM48.5 38C48.5 36.895 47.611 36 46.498 36H29.5C28.394 36 27.498 36.888 27.498 38C27.498 39.105 28.388 40 29.5 40H46.498C47.604 40 48.5 39.112 48.5 38Z" fill="black"/>
</svg>
